<?xml version="1.0" standalone="no"?>
<!DOCTYPE svg PUBLIC "-//W3C//DTD SVG 20010904//EN"
 "http://www.w3.org/TR/2001/REC-SVG-20010904/DTD/svg10.dtd">
<svg version="1.0" xmlns="http://www.w3.org/2000/svg"
 width="192.000000pt" height="192.000000pt" viewBox="0 0 192.000000 192.000000"
 preserveAspectRatio="xMidYMid meet">

<g transform="translate(0.000000,192.000000) scale(0.100000,-0.100000)"
fill="#000000" stroke="none">
<path d="M976 1777 c-9 -36 -7 -117 4 -117 10 0 11 7 14 88 2 47 -8 65 -18 29z"/>
<path d="M340 1761 c0 -25 6 -27 13 -6 4 8 2 17 -3 20 -6 4 -10 -3 -10 -14z"/>
<path d="M799 1768 c-3 -34 21 -128 33 -128 8 0 4 68 -6 77 -3 3 -6 17 -6 29
0 24 -19 44 -21 22z"/>
<path d="M1043 1766 c4 -10 -1 -23 -13 -33 -18 -16 -18 -18 -2 -45 16 -28 32
-37 32 -19 0 6 -4 13 -10 16 -15 9 -12 34 5 52 18 17 16 34 -5 41 -9 3 -11 -1
-7 -12z"/>
<path d="M1156 1732 c-3 -5 4 -23 15 -40 10 -18 19 -41 19 -52 0 -11 5 -20 10
-20 17 0 11 47 -11 84 -22 38 -25 41 -33 28z"/>
<path d="M600 1682 c0 -10 96 -82 110 -82 20 0 10 20 -17 34 -16 8 -39 24 -52
35 -25 22 -41 27 -41 13z"/>
<path d="M1293 1631 c-23 -34 -37 -61 -30 -61 14 0 80 97 75 111 -2 6 -22 -17
-45 -50z"/>
<path d="M1590 1650 c0 -5 5 -10 10 -10 6 0 10 5 10 10 0 6 -4 10 -10 10 -5 0
-10 -4 -10 -10z"/>
<path d="M293 1643 c-13 -2 -23 -11 -23 -19 0 -19 13 -18 40 6 13 11 19 19 14
19 -5 -1 -19 -4 -31 -6z"/>
<path d="M1626 1631 c-6 -10 22 -37 29 -29 8 7 -5 38 -15 38 -5 0 -11 -4 -14
-9z"/>
<path d="M510 1604 c0 -13 94 -103 102 -98 6 4 -12 28 -38 55 -44 45 -64 58
-64 43z"/>
<path d="M880 1596 c-324 -71 -474 -431 -295 -711 57 -90 161 -165 270 -194
22 -6 74 -11 115 -11 132 0 232 41 326 135 97 96 134 185 134 325 0 135 -33
219 -126 319 -64 69 -147 116 -246 137 -75 16 -105 16 -178 0z m324 -217 c31
-25 33 -45 5 -54 -18 -6 -20 -12 -14 -38 22 -109 17 -129 -53 -205 l-40 -43
-72 2 c-55 1 -75 -2 -88 -15 -15 -15 -15 -18 -2 -26 8 -5 23 -7 32 -4 12 4 17
-2 20 -23 2 -20 9 -29 26 -31 27 -4 28 -18 2 -32 -14 -8 -26 -8 -40 0 -15 8
-30 8 -55 -1 -24 -9 -43 -10 -62 -3 -35 12 -44 44 -13 44 16 0 20 4 16 16 -3
9 -6 24 -6 35 0 31 -34 23 -122 -28 l-81 -46 -18 24 c-10 13 -19 29 -19 34 0
17 55 45 77 39 14 -4 26 1 37 17 23 33 20 39 -16 39 l-33 1 43 39 c24 21 79
60 122 85 43 25 84 52 90 60 7 8 20 15 30 15 10 0 34 7 54 15 28 12 36 21 36
40 0 45 18 62 71 63 34 1 55 -5 73 -19z m-554 -328 c0 -8 -33 -41 -42 -41 -4
0 -8 11 -8 24 0 19 5 24 25 22 14 0 25 -3 25 -5z m637 -78 c3 -8 -3 -20 -13
-28 -11 -8 -14 -14 -6 -15 17 0 15 -30 -3 -30 -8 0 -15 5 -15 11 0 7 -11 9
-27 6 -38 -7 -77 27 -60 53 14 23 115 26 124 3z"/>
<path d="M1530 1600 c0 -5 5 -10 10 -10 6 0 10 5 10 10 0 6 -4 10 -10 10 -5 0
-10 -4 -10 -10z"/>
<path d="M1397 1545 c-27 -25 -47 -50 -45 -55 4 -12 108 76 108 91 0 17 -15 8
-63 -36z"/>
<path d="M490 1463 c-14 -7 -42 -13 -62 -13 -28 0 -38 -4 -38 -16 0 -12 5 -15
23 -9 12 4 44 10 71 14 27 3 51 11 53 17 6 18 -20 22 -47 7z"/>
<path d="M190 1460 c-8 -5 -11 -12 -7 -16 4 -4 15 0 24 9 18 18 8 23 -17 7z"/>
<path d="M1692 1458 c3 -7 15 -14 29 -16 23 -2 23 -2 5 13 -24 18 -39 20 -34
3z"/>
<path d="M1505 1407 c-41 -47 -57 -74 -47 -80 4 -3 27 18 50 48 46 58 43 84
-3 32z"/>
<path d="M1545 1250 c-14 -22 -32 -40 -41 -40 -8 0 -12 -4 -9 -10 13 -21 35
-9 64 36 34 49 36 54 21 54 -5 0 -21 -18 -35 -40z"/>
<path d="M320 1231 c0 -12 103 -26 126 -17 25 10 16 13 -58 20 -41 4 -68 3
-68 -3z"/>
<path d="M116 1205 c-3 -8 -1 -15 3 -15 5 0 11 7 15 15 3 8 1 15 -3 15 -5 0
-11 -7 -15 -15z"/>
<path d="M1787 1200 c3 -11 9 -20 13 -20 5 0 6 9 3 20 -3 11 -9 20 -13 20 -5
0 -6 -9 -3 -20z"/>
<path d="M416 1067 c-13 -13 -36 -33 -51 -45 -20 -16 -24 -23 -13 -27 18 -7
114 80 99 89 -6 4 -22 -4 -35 -17z"/>
<path d="M1536 1041 c-34 -10 -55 -21 -48 -25 18 -11 132 19 132 35 0 12 -12
10 -84 -10z"/>
<path d="M120 960 c0 -25 16 -44 25 -30 4 7 0 19 -9 28 -13 14 -16 14 -16 2z"/>
<path d="M430 961 c0 -5 -18 -11 -40 -15 -22 -3 -40 -11 -40 -16 0 -11 67 -4
108 11 30 11 28 29 -3 29 -14 0 -25 -4 -25 -9z"/>
<path d="M1786 935 c-3 -8 -1 -15 4 -15 6 0 10 7 10 15 0 8 -2 15 -4 15 -2 0
-6 -7 -10 -15z"/>
<path d="M1448 853 c-60 -16 -77 -33 -33 -33 14 0 25 5 25 10 0 6 22 10 49 10
50 0 74 13 45 24 -19 7 -15 8 -86 -11z"/>
<path d="M512 828 c-6 -14 -15 -29 -21 -32 -17 -11 -41 -66 -28 -66 17 1 69
89 64 109 -3 12 -7 9 -15 -11z"/>
<path d="M264 799 c-7 -12 13 -29 34 -29 18 0 15 14 -8 27 -13 9 -21 9 -26 2z"/>
<path d="M1633 793 c-18 -6 -16 -23 1 -23 17 0 30 16 19 23 -5 2 -14 2 -20 0z"/>
<path d="M175 740 c3 -5 11 -10 16 -10 6 0 7 5 4 10 -3 6 -11 10 -16 10 -6 0
-7 -4 -4 -10z"/>
<path d="M568 700 c-25 -32 -34 -51 -26 -56 6 -4 15 1 20 10 5 10 23 32 39 50
32 37 35 46 17 45 -7 0 -30 -22 -50 -49z"/>
<path d="M1310 725 c0 -9 9 -15 22 -15 12 0 29 -6 37 -14 22 -19 61 -30 61
-17 0 6 -25 22 -56 36 -67 29 -64 29 -64 10z"/>
<path d="M220 725 c0 -12 33 -55 41 -55 16 0 10 32 -8 46 -19 14 -33 18 -33 9z"/>
<path d="M1668 709 c-10 -5 -18 -17 -18 -24 0 -22 28 -18 40 4 17 33 10 39
-22 20z"/>
<path d="M1180 664 c0 -16 51 -114 60 -114 13 0 13 2 -9 47 -11 21 -22 46 -25
56 -5 15 -26 25 -26 11z"/>
<path d="M779 645 c-5 -9 -5 -54 0 -117 2 -32 21 -19 20 15 0 48 -14 113 -20
102z"/>
<path d="M1064 608 c4 -13 10 -42 13 -65 6 -47 23 -59 23 -17 0 37 -21 104
-33 104 -5 0 -6 -10 -3 -22z"/>
<path d="M886 594 c-12 -32 -6 -71 15 -90 22 -19 22 -19 10 3 -14 28 -14 76 1
91 9 9 8 12 -4 12 -9 0 -19 -7 -22 -16z"/>
<path d="M225 590 c3 -5 8 -10 11 -10 2 0 4 5 4 10 0 6 -5 10 -11 10 -5 0 -7
-4 -4 -10z"/>
<path d="M620 355 c0 -8 5 -15 10 -15 6 0 10 7 10 15 0 8 -4 15 -10 15 -5 0
-10 -7 -10 -15z"/>
<path d="M1282 359 c2 -6 8 -10 13 -10 5 0 11 4 13 10 2 6 -4 11 -13 11 -9 0
-15 -5 -13 -11z"/>
<path d="M870 321 c0 -11 40 -22 52 -15 5 3 6 10 3 15 -8 12 -55 12 -55 0z"/>
<path d="M1000 300 c0 -19 3 -21 12 -12 9 9 9 15 0 24 -9 9 -12 7 -12 -12z"/>
<path d="M963 263 c-18 -2 -33 -10 -33 -17 0 -16 62 -17 72 -2 10 14 10 26 1
24 -5 0 -23 -3 -40 -5z"/>
<path d="M640 161 c0 -14 34 -31 60 -31 15 0 20 5 18 18 -2 12 -14 18 -41 20
-20 2 -37 -1 -37 -7z"/>
<path d="M1223 163 c-23 -9 -14 -33 11 -33 21 0 56 22 56 36 0 5 -52 4 -67 -3z"/>
</g>
</svg>
